<svg width="1200" height="1200" viewBox="0 0 1200 1200" fill="none" xmlns="http://www.w3.org/2000/svg">
<path d="M0 400C0 259.987 0 189.98 27.2484 136.502C51.2167 89.4619 89.4619 51.2167 136.502 27.2484C189.98 0 259.987 0 400 0H800C940.013 0 1010.02 0 1063.5 27.2484C1110.54 51.2167 1148.78 89.4619 1172.75 136.502C1200 189.98 1200 259.987 1200 400V800C1200 940.013 1200 1010.02 1172.75 1063.5C1148.78 1110.54 1110.54 1148.78 1063.5 1172.75C1010.02 1200 940.013 1200 800 1200H400C259.987 1200 189.98 1200 136.502 1172.75C89.4619 1148.78 51.2167 1110.54 27.2484 1063.5C0 1010.02 0 940.013 0 800V400Z" fill="white"/>
<path d="M600 1100C876.142 1100 1100 876.142 1100 600C1100 323.858 876.142 100 600 100C323.858 100 100 323.858 100 600C100 876.142 323.858 1100 600 1100Z" fill="url(#paint0_linear)"/>
<path fill-rule="evenodd" clip-rule="evenodd" d="M326.328 594.722C472.089 531.217 569.285 489.35 617.917 469.122C756.773 411.367 785.625 401.335 804.431 401.004C808.568 400.931 817.816 401.956 823.806 406.817C828.865 410.921 830.257 416.466 830.923 420.357C831.589 424.249 832.418 433.114 831.759 440.041C824.234 519.102 791.675 710.965 775.111 799.515C768.102 836.984 754.301 849.548 740.941 850.777C711.905 853.449 689.856 831.588 661.733 813.153C617.727 784.306 592.866 766.349 550.15 738.2C500.784 705.669 532.786 687.789 560.919 658.569C568.282 650.921 696.215 534.556 698.691 524C699.001 522.68 699.288 517.759 696.365 515.16C693.441 512.562 689.126 513.45 686.012 514.157C681.599 515.159 611.298 561.625 475.11 653.556C455.155 667.259 437.081 673.935 420.887 673.585C403.034 673.199 368.693 663.491 343.164 655.192C311.851 645.014 286.964 639.632 289.132 622.346C290.26 613.343 302.659 604.135 326.328 594.722Z" fill="white"/>
<defs>
<linearGradient id="paint0_linear" x1="600" y1="100" x2="600" y2="1092.58" gradientUnits="userSpaceOnUse">
<stop stop-color="#2AABEE"/>
<stop offset="1" stop-color="#229ED9"/>
</linearGradient>
</defs>
</svg>
